<?xml version="1.0" standalone="no"?>
<!DOCTYPE svg PUBLIC "-//W3C//DTD SVG 20010904//EN"
 "http://www.w3.org/TR/2001/REC-SVG-20010904/DTD/svg10.dtd">
<svg version="1.0" xmlns="http://www.w3.org/2000/svg"
 width="400.000000pt" height="400.000000pt" viewBox="0 0 400.000000 400.000000"
 preserveAspectRatio="xMidYMid meet">
<metadata>
Created by potrace 1.14, written by Peter Selinger 2001-2017
</metadata>
<g transform="translate(0.000000,400.000000) scale(0.100000,-0.100000)"
fill="#000000" stroke="none">
<path d="M0 2000 l0 -2000 2000 0 2000 0 0 2000 0 2000 -2000 0 -2000 0 0
-2000z m225 1620 c9 -8 19 -8 32 -1 24 12 134 10 126 -3 -3 -5 1 -14 9 -20 9
-6 17 -20 19 -31 3 -12 12 -20 24 -20 16 0 23 -13 36 -62 21 -76 32 -183 20
-183 -5 0 -16 7 -25 15 -8 9 -19 15 -23 14 -16 -4 -42 13 -38 24 5 12 -22 54
-29 46 -2 -2 1 -25 7 -51 9 -39 18 -51 44 -63 18 -9 33 -22 33 -30 0 -7 13
-19 29 -26 16 -7 28 -16 25 -20 -2 -4 3 -21 12 -38 9 -17 18 -65 21 -106 3
-41 9 -75 13 -75 4 0 13 -30 19 -67 6 -38 16 -94 22 -126 12 -64 8 -77 -21
-59 -29 18 -32 15 -25 -16 5 -23 1 -31 -20 -42 -42 -22 -28 -45 31 -48 65 -4
73 7 79 99 2 41 11 99 20 129 9 30 25 95 36 144 10 49 21 92 24 94 11 12 36
-11 41 -37 4 -17 14 -33 24 -36 12 -4 21 -20 25 -45 5 -30 14 -44 41 -61 19
-11 34 -25 34 -31 0 -6 11 -23 25 -39 26 -31 26 -52 1 -129 -8 -24 -17 -34
-29 -32 -9 2 -17 -2 -17 -8 0 -5 4 -10 9 -10 6 0 9 -17 8 -37 -2 -27 -8 -37
-22 -39 -73 -12 -81 -16 -91 -47 -7 -25 -14 -31 -31 -29 -26 4 -28 -1 -13 -28
8 -14 4 -25 -17 -49 -24 -27 -34 -31 -76 -31 -59 0 -107 23 -107 51 0 12 -12
27 -30 37 -17 9 -33 25 -36 35 -3 9 -14 17 -25 17 -13 0 -24 10 -31 30 -5 17
-18 35 -29 40 -54 29 -71 77 -125 340 -7 36 -22 106 -33 155 -11 50 -29 131
-39 180 -11 50 -25 108 -30 130 -17 61 -42 197 -38 204 7 10 96 3 111 -9z
m1719 12 c3 -5 0 -26 -6 -48 -6 -21 -12 -45 -12 -53 -1 -22 -26 -25 -27 -4 -1
16 -2 16 -6 1 -2 -10 -11 -18 -19 -18 -8 0 -14 -6 -14 -14 0 -23 17 -28 25 -8
5 15 7 15 14 2 13 -22 -8 -150 -24 -150 -19 0 -26 26 -19 73 4 36 4 39 -7 22
-7 -11 -15 -22 -19 -25 -26 -19 -11 -86 25 -113 6 -5 3 -13 -9 -22 -17 -13
-18 -19 -7 -56 9 -30 9 -45 2 -52 -6 -6 -11 -29 -11 -51 0 -23 -7 -54 -15 -70
-8 -15 -15 -40 -15 -55 0 -15 -12 -78 -26 -141 -14 -63 -31 -144 -39 -180 -35
-175 -48 -209 -71 -189 -8 6 -14 17 -14 25 0 24 -19 25 -49 3 -16 -11 -35 -32
-42 -45 -7 -13 -19 -24 -26 -24 -8 0 -33 -9 -55 -20 l-42 -20 -23 22 c-16 15
-20 25 -13 33 7 9 3 18 -15 31 -30 22 -33 44 -6 44 18 0 18 1 -1 39 -18 37
-18 41 -3 65 16 24 45 36 45 18 0 -4 15 -12 34 -18 l34 -10 -31 38 c-29 37
-30 38 -12 58 14 15 15 23 6 34 -11 13 1 119 28 241 5 22 14 63 19 90 26 129
36 171 44 181 5 6 6 18 2 27 -6 17 24 135 37 143 5 2 6 18 2 34 -6 32 13 43
23 15 4 -8 12 -15 20 -15 17 0 18 12 4 26 -7 7 -1 23 20 49 17 21 33 49 36 62
7 28 48 32 76 6 17 -15 18 -15 18 3 0 17 9 19 79 22 44 2 82 -1 85 -6z m-823
-42 c4 0 19 -10 35 -22 15 -12 34 -23 42 -24 21 -4 25 -10 27 -49 1 -19 8 -41
15 -49 7 -9 13 -56 16 -112 2 -53 8 -102 15 -110 6 -7 8 -18 5 -23 -4 -5 4
-17 16 -25 l22 -15 -25 -10 c-24 -10 -24 -10 -1 -10 23 -1 30 -15 12 -26 -6
-4 -8 -10 -5 -15 3 -5 1 -11 -5 -15 -5 -3 -10 -17 -10 -30 0 -12 -7 -25 -15
-29 -8 -3 -15 -12 -15 -21 0 -8 7 -15 15 -15 8 0 15 -7 15 -15 0 -8 -9 -15
-20 -15 -11 0 -20 5 -20 10 0 6 -7 10 -15 10 -21 0 -19 -16 3 -24 22 -8 61
-31 74 -44 16 -16 -28 -55 -53 -47 -18 6 -19 5 -7 -14 16 -26 30 -27 46 -1 7
11 19 20 28 20 13 0 14 -3 5 -14 -9 -10 -8 -16 4 -26 23 -19 18 -30 -15 -30
-36 0 -37 -6 -7 -31 l22 -19 -22 -6 c-23 -6 -32 -37 -14 -48 4 -3 11 -32 14
-64 2 -33 12 -70 20 -83 14 -23 19 -121 6 -134 -25 -24 -137 66 -131 105 2 11
-1 20 -7 20 -23 0 -59 133 -76 278 -6 51 -5 52 21 52 23 0 25 2 14 15 -18 22
-5 30 25 17 32 -15 35 7 4 26 -23 15 -19 44 12 78 19 20 18 20 -15 21 -27 1
-36 -4 -41 -21 -4 -13 -8 -16 -12 -8 -2 6 -11 12 -19 12 -21 0 -17 17 6 23 35
9 23 34 -19 41 l-40 6 4 51 c4 47 2 50 -18 47 -16 -2 -23 -11 -25 -30 -2 -19
-9 -28 -22 -28 -19 0 -100 77 -100 96 0 9 -21 23 -61 41 -4 1 -12 -4 -19 -11
-9 -12 -6 -18 17 -29 45 -24 163 -142 162 -163 -2 -52 -36 -188 -48 -192 -8
-3 -11 0 -8 6 4 5 0 15 -8 22 -19 16 -19 44 0 60 24 20 18 33 -14 27 -34 -7
-46 4 -55 49 -4 19 -16 35 -31 42 -21 10 -85 90 -85 107 0 15 35 81 47 88 16
10 17 34 1 39 -9 3 -7 28 10 96 12 51 22 101 22 112 0 27 29 38 45 17 14 -19
26 -12 18 9 -3 8 2 17 11 20 9 3 16 13 16 21 0 13 10 15 50 11 32 -3 54 -1 60
7 7 9 23 10 53 4 23 -4 45 -8 48 -9z m-6 -626 c14 -11 16 -18 8 -21 -8 -3 -11
-14 -7 -28 5 -22 -10 -44 -19 -27 -10 15 -18 92 -10 92 4 0 17 -8 28 -16z
m242 -41 c-3 -10 -5 -2 -5 17 0 19 2 27 5 18 2 -10 2 -26 0 -35z m26 -70 c3
-21 9 -48 13 -61 5 -17 3 -21 -9 -17 -18 7 -42 87 -33 110 9 25 23 10 29 -32z
m-987 -287 c18 -19 36 -66 30 -81 -6 -16 -56 -29 -67 -18 -4 4 -11 32 -15 61
-6 49 -5 52 15 52 13 0 29 -6 37 -14z m824 -143 c0 -24 -25 -9 -28 17 -3 21
-2 22 12 11 9 -7 16 -20 16 -28z m2035 -664 c16 27 105 -7 105 -41 0 -12 8
-18 23 -18 13 0 35 -12 49 -27 l27 -28 1 -287 c1 -284 0 -288 -20 -288 -14 0
-20 -7 -21 -22 -1 -13 -3 -40 -5 -60 -2 -28 1 -38 11 -38 11 0 14 10 12 40 -2
26 1 41 10 44 11 4 13 -14 11 -92 -1 -53 -4 -87 -6 -74 -3 18 -7 21 -17 12
-17 -14 -8 -48 14 -53 11 -3 8 -5 -7 -6 -15 -1 -25 7 -32 24 -8 20 -16 25 -45
25 -37 0 -48 -18 -16 -27 11 -3 22 -14 24 -25 4 -12 11 -18 20 -15 9 3 17 -8
25 -37 14 -49 10 -128 -6 -134 -8 -2 -7 -10 3 -25 8 -12 11 -27 7 -32 -12 -17
-55 -30 -88 -27 -26 3 -33 9 -42 38 -6 20 -8 42 -6 49 3 7 -4 19 -16 25 -21
11 -21 13 -6 28 15 15 18 15 45 -1 34 -20 51 -22 51 -4 0 16 -27 33 -68 42
-22 4 -32 12 -32 25 0 10 -5 22 -11 26 -8 4 -9 -3 -4 -25 4 -21 2 -37 -6 -47
-10 -12 -10 -20 -1 -35 11 -17 16 -40 24 -104 3 -18 -3 -20 -57 -18 -33 1 -63
2 -67 2 -4 1 -6 16 -4 34 3 17 5 74 5 126 l1 93 25 -6 c14 -4 25 -2 25 3 0 20
-24 61 -35 61 -13 0 -14 8 -15 93 0 36 -5 59 -13 62 -6 3 -93 6 -192 7 -99 2
-186 6 -194 8 -11 4 -17 -7 -23 -39 -4 -25 -12 -49 -18 -55 -6 -6 -6 -14 1
-23 7 -7 8 -13 3 -13 -5 0 -9 -28 -9 -63 0 -54 -3 -63 -23 -72 -29 -13 -28
-25 3 -25 14 0 25 5 25 10 0 6 4 10 9 10 14 0 12 -91 -3 -112 -13 -18 -15 -18
-46 13 -26 26 -34 30 -41 18 -5 -8 -8 -24 -6 -36 3 -17 -1 -23 -14 -23 -10 0
-23 -9 -29 -20 -6 -11 -15 -20 -20 -20 -6 0 -10 9 -10 20 0 11 4 20 9 20 5 0
12 17 16 39 4 26 15 45 36 60 17 13 28 25 25 28 -8 8 -64 -29 -70 -46 -6 -21
-37 -71 -55 -90 -10 -12 -17 -12 -32 -3 -12 8 -19 8 -19 2 0 -5 -10 -10 -23
-10 -29 0 -44 41 -47 128 -1 47 2 63 12 61 44 -6 55 26 13 37 -23 6 -25 11
-22 46 2 22 10 43 17 48 11 7 11 12 2 23 -15 18 -1 61 23 74 19 11 75 5 75 -8
0 -5 4 -9 9 -9 5 0 9 14 9 30 -1 28 -3 30 -29 25 -24 -6 -27 -4 -22 14 6 24
-9 28 -27 6 -14 -17 -34 -9 -26 11 3 7 1 16 -4 19 -6 4 -10 21 -10 40 0 19 -4
37 -10 40 -14 9 -12 89 2 103 10 10 10 15 -1 22 -12 7 -12 12 -3 23 7 7 9 17
5 21 -15 15 -12 80 4 98 15 17 15 18 0 18 -14 0 -17 11 -17 69 0 39 5 73 11
76 6 4 8 14 5 22 -9 22 2 34 22 24 9 -5 25 -12 36 -15 15 -5 16 -9 6 -21 -10
-12 -10 -18 0 -30 6 -8 9 -23 5 -35 -7 -22 4 -27 22 -9 7 7 10 30 6 59 -6 50
-4 53 40 64 25 6 27 4 27 -23 0 -16 5 -33 10 -36 21 -13 10 -54 -17 -67 -15
-7 -29 -21 -31 -31 -5 -22 25 -33 50 -18 14 9 23 9 33 1 9 -8 15 -8 20 0 15
24 23 5 30 -68 4 -53 13 -86 26 -102 10 -14 19 -20 19 -13 0 9 8 8 28 -3 16
-8 39 -12 55 -8 17 4 37 0 52 -10 21 -14 26 -14 54 0 23 11 35 12 50 4 12 -6
32 -8 46 -4 20 5 25 3 25 -14 0 -11 -8 -22 -20 -25 -13 -3 -18 -10 -14 -21 4
-12 0 -16 -15 -16 -14 0 -23 8 -27 25 -7 30 -25 32 -41 6 -11 -17 -9 -20 17
-26 22 -5 30 -13 32 -33 2 -19 9 -27 21 -26 9 1 17 -2 17 -7 0 -5 6 -9 14 -9
7 0 16 -13 20 -30 5 -30 28 -40 42 -19 8 14 73 2 95 -17 28 -26 39 10 17 58
-12 25 -12 25 -44 8 -33 -19 -46 -16 -57 13 -3 9 -16 17 -27 17 -29 0 -25 13
10 33 17 10 30 22 30 28 0 11 2 11 -38 0 -34 -10 -35 -5 -4 32 14 15 17 16 32
2 16 -14 20 -13 50 15 25 23 31 35 25 53 -18 57 -17 65 12 97 26 29 32 31 51
21 26 -14 28 -26 7 -35 -8 -3 -15 -15 -15 -26 0 -13 -7 -20 -20 -20 -22 0 -28
-26 -8 -32 18 -6 69 21 75 41 3 9 13 24 21 34 14 16 14 19 -6 33 -52 36 -52
39 -21 99 16 31 29 64 29 74 0 9 5 22 12 29 17 17 4 24 -26 13 -14 -6 -26 -17
-26 -25 0 -8 -5 -27 -12 -41 -9 -20 -18 -25 -45 -25 -33 0 -34 1 -31 38 3 33
6 37 30 37 15 0 32 5 38 12 17 16 3 73 -17 73 -14 0 -14 3 2 20 17 18 20 19
36 4 11 -10 19 -12 24 -5z m199 -45 c12 -31 6 -37 -14 -14 -24 27 -24 30 -6
30 8 0 17 -7 20 -16z m-746 -136 c12 -12 17 -120 5 -131 -16 -16 -33 19 -33
67 0 29 -5 57 -12 64 -9 9 -8 12 8 12 11 0 25 -5 32 -12z m458 -35 c19 -25 17
-47 -5 -67 -18 -17 -19 -16 -26 23 -9 57 5 78 31 44z m-458 -125 c15 -15 16
-64 2 -73 -6 -4 -10 6 -10 24 0 16 -4 33 -10 36 -12 7 -13 25 -2 25 4 0 13 -5
20 -12z m749 -670 c-3 -8 -6 -5 -6 6 -1 11 2 17 5 13 3 -3 4 -12 1 -19z m0
-125 c-3 -10 -5 -4 -5 12 0 17 2 24 5 18 2 -7 2 -21 0 -30z"/>
<path d="M210 3570 c0 -6 7 -13 15 -16 10 -4 13 -13 10 -25 -4 -12 -2 -19 7
-19 18 0 40 -47 24 -55 -8 -3 -7 -7 2 -11 6 -3 12 -15 12 -27 1 -20 2 -21 14
-4 16 21 26 22 26 1 0 -9 7 -14 18 -12 12 3 16 12 15 32 -3 39 -21 60 -40 44
-11 -9 -16 -9 -24 3 -5 8 -7 19 -5 26 3 6 -2 14 -10 17 -7 3 -13 16 -11 28 2
18 -4 24 -25 26 -16 2 -28 -2 -28 -8z"/>
<path d="M357 3543 c-11 -10 14 -33 36 -33 19 0 20 1 2 20 -19 21 -28 24 -38
13z"/>
<path d="M370 3476 c0 -8 5 -18 10 -21 6 -3 10 3 10 14 0 12 -4 21 -10 21 -5
0 -10 -6 -10 -14z"/>
<path d="M300 3361 c0 -5 5 -13 10 -16 14 -9 12 -48 -2 -64 -10 -11 -10 -14 0
-18 23 -9 12 -22 -20 -25 -26 -3 -29 -6 -15 -12 11 -5 26 -2 43 8 23 16 25 22
22 74 -2 45 -7 58 -20 60 -10 2 -18 -1 -18 -7z"/>
<path d="M266 3201 c-3 -5 0 -11 6 -14 10 -3 10 -9 2 -23 -9 -15 -7 -25 10
-49 26 -38 69 -75 78 -69 12 7 5 94 -7 94 -6 0 -16 -5 -23 -12 -19 -19 -15 32
4 53 15 17 15 18 -2 17 -11 -1 -29 2 -41 6 -12 4 -24 3 -27 -3z"/>
<path d="M370 3180 c0 -5 7 -10 15 -10 8 0 15 5 15 10 0 6 -7 10 -15 10 -8 0
-15 -4 -15 -10z"/>
<path d="M440 3005 c0 -16 -6 -25 -15 -25 -9 0 -15 -9 -15 -21 0 -18 -3 -19
-15 -9 -8 7 -23 9 -32 5 -17 -6 -17 -7 1 -17 11 -6 34 -14 53 -18 l34 -8 -7
34 c-4 22 -2 34 5 34 6 0 11 -9 11 -20 0 -11 5 -20 10 -20 6 0 10 6 10 14 0 8
-4 18 -10 21 -5 3 -10 17 -10 31 0 13 -4 24 -10 24 -5 0 -10 -11 -10 -25z"/>
<path d="M678 2653 c-23 -6 -24 -46 -2 -67 37 -37 83 -2 64 48 -9 25 -23 29
-62 19z"/>
<path d="M523 2563 c-25 -9 -14 -48 20 -70 38 -27 60 -29 76 -9 15 18 -2 56
-23 56 -8 0 -19 7 -26 15 -13 15 -25 17 -47 8z"/>
<path d="M1655 3450 c3 -5 8 -10 11 -10 2 0 4 5 4 10 0 6 -5 10 -11 10 -5 0
-7 -4 -4 -10z"/>
<path d="M1710 3366 c0 -9 5 -16 10 -16 6 0 10 4 10 9 0 6 -4 13 -10 16 -5 3
-10 -1 -10 -9z"/>
<path d="M1680 3329 c0 -5 5 -7 10 -4 6 3 10 8 10 11 0 2 -4 4 -10 4 -5 0 -10
-5 -10 -11z"/>
<path d="M1717 3284 c9 -15 19 -21 21 -15 6 19 -6 41 -23 41 -14 0 -13 -3 2
-26z"/>
<path d="M1550 2561 c0 -9 30 -24 36 -18 2 1 -6 8 -16 15 -11 7 -20 8 -20 3z"/>
<path d="M1108 3548 c9 -9 15 -9 24 0 9 9 7 12 -12 12 -19 0 -21 -3 -12 -12z"/>
<path d="M1065 3450 c-4 -6 7 -10 24 -10 17 0 31 5 31 10 0 6 -11 10 -24 10
-14 0 -28 -4 -31 -10z"/>
<path d="M3300 1640 c0 -5 9 -10 21 -10 11 0 17 5 14 10 -3 6 -13 10 -21 10
-8 0 -14 -4 -14 -10z"/>
<path d="M3320 1570 c0 -5 5 -10 10 -10 6 0 10 5 10 10 0 6 -4 10 -10 10 -5 0
-10 -4 -10 -10z"/>
<path d="M3358 1543 c-23 -6 -22 -9 2 -33 28 -28 42 -25 38 7 -3 28 -12 33
-40 26z"/>
<path d="M2478 1473 c-22 -5 -23 -17 -3 -37 17 -17 20 -42 5 -51 -15 -10 -12
-25 6 -25 14 0 15 -9 9 -60 -4 -33 -3 -60 2 -60 7 0 35 16 61 36 2 1 -1 10 -7
21 -24 42 -51 108 -51 123 0 9 5 21 11 27 6 6 8 16 5 22 -7 11 -10 12 -38 4z"/>
<path d="M2540 1445 c0 -8 5 -15 10 -15 6 0 10 7 10 15 0 8 -4 15 -10 15 -5 0
-10 -7 -10 -15z"/>
<path d="M3387 1324 c-8 -8 1 -24 14 -24 5 0 9 7 9 15 0 15 -12 20 -23 9z"/>
<path d="M3190 1275 c32 -33 60 -45 60 -26 0 5 -7 11 -15 15 -22 8 -19 26 4
26 11 0 23 5 26 10 4 6 -16 10 -51 10 l-58 0 34 -35z"/>
<path d="M2615 1262 c-22 -1 -46 -5 -54 -7 -21 -8 6 -35 35 -35 14 0 24 -6 24
-14 0 -8 6 -16 14 -19 11 -4 16 5 21 34 4 22 5 41 3 42 -1 1 -21 1 -43 -1z"/>
<path d="M2680 1210 c0 -5 5 -10 10 -10 6 0 10 5 10 10 0 6 -4 10 -10 10 -5 0
-10 -4 -10 -10z"/>
<path d="M2860 1160 c0 -5 5 -10 10 -10 6 0 10 5 10 10 0 6 -4 10 -10 10 -5 0
-10 -4 -10 -10z"/>
<path d="M2450 1142 c0 -26 4 -29 65 -36 37 -5 44 -4 28 3 -15 7 -21 16 -17
26 5 11 0 15 -19 15 -14 0 -32 3 -41 6 -11 4 -16 0 -16 -14z"/>
<path d="M2840 1130 c0 -5 5 -10 10 -10 6 0 10 5 10 10 0 6 -4 10 -10 10 -5 0
-10 -4 -10 -10z"/>
<path d="M3410 1121 c0 -12 6 -21 16 -21 9 0 14 7 12 17 -5 25 -28 28 -28 4z"/>
<path d="M2826 1091 c-4 -7 -5 -15 -2 -18 9 -9 19 4 14 18 -4 11 -6 11 -12 0z"/>
<path d="M2680 976 c0 -9 5 -16 10 -16 6 0 10 4 10 9 0 6 -4 13 -10 16 -5 3
-10 -1 -10 -9z"/>
<path d="M3175 980 c-3 -5 -1 -10 4 -10 6 0 11 5 11 10 0 6 -2 10 -4 10 -3 0
-8 -4 -11 -10z"/>
<path d="M2508 956 c-19 -14 -13 -26 24 -45 14 -7 28 -22 31 -32 5 -17 21 -20
43 -6 17 10 25 -3 14 -23 -8 -15 -4 -18 25 -22 43 -5 46 12 8 42 -22 17 -25
23 -13 30 8 6 21 10 28 10 6 0 12 6 12 14 0 16 -80 37 -111 29 -10 -3 -25 -1
-32 5 -8 7 -17 7 -29 -2z"/>
<path d="M3422 931 c4 -13 18 -16 19 -4 0 4 -5 9 -11 12 -7 2 -11 -2 -8 -8z"/>
<path d="M2512 888 c-14 -14 -16 -38 -4 -38 12 0 32 23 32 37 0 16 -12 17 -28
1z"/>
<path d="M2503 768 c2 -7 10 -13 17 -13 7 0 15 6 18 13 2 7 -5 12 -18 12 -13
0 -20 -5 -17 -12z"/>
<path d="M3177 764 c-8 -8 1 -24 14 -24 5 0 9 7 9 15 0 15 -12 20 -23 9z"/>
<path d="M2435 651 c-3 -5 -1 -12 5 -16 5 -3 10 1 10 9 0 18 -6 21 -15 7z"/>
</g>
</svg>
